# xmcd CD database file
#
# Track frame offsets:
#	150
#	16733
#	36652
#	49655
#	64619
#	75530
#	90439
#	103783
#
# Disc length: 1599 seconds
#
# Revision: 0
# Processed by: cddbd v1.5.2PL0 Copyright (c) Steve Scherf et al.
# Submitted via: CDex 1.51
#
DISCID=59063d08
DTITLE=Arty Hill And The Long Gone Daddys - Montgomery On My Mind: The Hank EP
DYEAR=2009
DGENRE=Country
TTITLE0=Church On Saturday Night
TTITLE1=Pan American
TTITLE2=I Can't Help It If I'm Still In Love With You
TTITLE3=I'm A Long Gone Daddy
TTITLE4=Don's Bop
TTITLE5=Lovesick Blues
TTITLE6=Take These Chains From My Heart
TTITLE7=Arty Hill And The Long Gone Daddys - Montgomery On My Mind
EXTD=YEAR: 2009
EXTT0=
EXTT1=
EXTT2=
EXTT3=
EXTT4=
EXTT5=
EXTT6=
EXTT7=
PLAYORDER=
